<svg width="210mm" height="210mm" viewBox="0 0 210 210" xmlns="http://www.w3.org/2000/svg">
  <g aria-label="BA" style="font-weight:700;font-size:70.0346px;line-height:1.25;font-family:'Nimbus Sans';-inkscape-font-specification:'Nimbus Sans, Bold';stroke-width:1.76422">
    <path d="M62.38552994 130.4446258H85.4318c5.9020931 0 9.8368225-1.11690722 12.92839488-3.69976325 3.0915744-2.58285603 5.0589401-6.84107787 5.0589401-10.95968507 0-5.02610738-2.6699999-9.00509993-8.50182757-12.35583154 5.05893708-3.21111697 7.02630078-6.14300763 7.02630078-10.4710368 0-3.56015358-1.75657444-7.19011349-4.63735858-9.7031632-3.02130996-2.58285603-6.60472327-3.69976623-12.08523886-3.69976623h-22.8354808Zm10.53945268-42.16338144h11.45287211c4.91841125 0 7.4478793 1.9545941 7.4478793 5.72416867 0 3.83938088-2.52946805 5.793972-7.4478793 5.793972h-11.4528721zm0 20.2440113h12.5770798c5.1292005 0 7.79919538 2.23381444 7.79919538 6.63165092 0 4.32803415-2.66999488 6.56185855-7.79919538 6.56185855h-12.5770798Z"/>
    <path d="m140.3773423 120.18301397 3.37262406 10.26161183h10.82050636l-17.7062813-50.8892461h-11.66365735l-18.19812022 50.8892461h10.75023792l3.44288245-10.26161183zm-2.88078513-8.72587064H124.1465878l6.67498971-19.89497269z"/>
  </g>
</svg>
