<svg width="210mm" height="210mm" viewBox="0 0 210 210" xmlns="http://www.w3.org/2000/svg">
  <path style="fill:none;stroke:#000;stroke-width:3;stroke-linecap:butt;stroke-linejoin:miter;stroke-miterlimit:4;stroke-dasharray:none;stroke-opacity:1" d="M.0147505 105H209.98525"/>
  <g aria-label="BP" style="font-weight:700;font-size:70.0346px;line-height:1.25;font-family:'Nimbus Sans';-inkscape-font-specification:'Nimbus Sans, Bold';stroke-width:1.76422">
    <path d="M62.87732873 130.4446258H85.9235988c5.9020931 0 9.8368225-1.11690722 12.92839488-3.69976325 3.09157439-2.58285603 5.0589401-6.84107787 5.0589401-10.95968507 0-5.02610738-2.6699999-9.00509993-8.50182757-12.35583154 5.05893507-3.21111697 7.02630078-6.14300763 7.02630078-10.4710368 0-3.56015358-1.75657043-7.19011349-4.63735858-9.7031632-3.02130997-2.58285603-6.60472327-3.69976623-12.08523887-3.69976623h-22.8354808Zm10.53945268-42.16338144h11.4528721c4.91841126 0 7.4478793 1.9545941 7.4478793 5.72416867 0 3.83938088-2.52946804 5.793972-7.4478793 5.793972h-11.4528721zm0 20.2440113h12.5770808c5.1291995 0 7.79919437 2.23381444 7.79919437 6.63165092 0 4.32803415-2.66999487 6.56185855-7.79919437 6.56185855H73.4167814Z"/>
    <path d="M123.72497718 112.29483122h13.13918414c9.415248 0 15.45786192-6.63166088 15.45786192-16.96308701 0-10.19181148-5.83182868-15.7763645-16.5118082-15.7763645H113.1855245v50.88924609h10.53945268zm0-8.72587063V88.28124436h9.83682852c5.6210334 0 8.22076486 2.44324238 8.22076486 7.60895545 0 5.23551939-2.59973146 7.67876078-8.22076486 7.67876078z"/>
  </g>
</svg>
