<svg width="210mm" height="210mm" viewBox="0 0 210 210" xmlns="http://www.w3.org/2000/svg">
  <g aria-label="FS" style="font-weight:700;font-size:70.0346px;line-height:1.25;font-family:'Nimbus Sans';-inkscape-font-specification:'Nimbus Sans, Bold';stroke-width:1.76422">
    <path d="M75.41938868 108.1413079h22.4139023v-8.72586166h-22.4139023V87.89730458h25.43520925v-8.72586565H64.879936V130.060688h10.53945268z"/>
    <path d="M144.90930525 94.66857612c-.0702283-10.5408461-7.16682862-16.3348211-20.09521748-16.3348211-12.29603314 0-19.39259333 5.72416867-19.39259333 15.63675185 0 7.88818176 4.00498981 11.72755965 14.40391565 13.68215475l7.16682862 1.39613652c7.02630179 1.32633417 9.62603325 3.28092927 9.62603325 7.39953646 0 4.25822184-3.93473141 6.84107787-10.32866744 6.84107787-7.16682862 0-11.17181843-3.00169997-11.52313051-8.44663137h-10.258399c.63236575 10.88987276 8.15050646 16.8234604 21.2194322 16.8234604 13.20944253 0 21.00863691-6.07320229 21.00863691-16.47442876 0-8.0277974-4.07525825-12.2162169-13.56076465-14.03119735l-8.00997962-1.53574817c-7.5181407-1.46594483-9.69630168-2.93189066-9.69630168-6.6316579 0-3.83938089 3.37262405-6.28262327 8.85314065-6.28262327 6.6749897 0 10.39892584 2.79227701 10.75024795 7.95799007z"/>
  </g>
</svg>
