<svg width="210mm" height="210mm" viewBox="0 0 210 210" xmlns="http://www.w3.org/2000/svg">
  <g aria-label="FMC" style="font-weight:700;font-size:61.4504px;line-height:1.25;-inkscape-font-specification:'sans-serif, Bold';stroke-width:1.53627">
    <path d="M49.43395467 80.23842256h28.23825821v9.63962593H59.8976015v9.20898864h16.71465758v9.63962593H59.8976015v20.9686675H49.43395467Z"/>
    <path d="M87.45640116 80.23842256h13.31737033l9.24062635 26.4675638 9.29497375-26.4675638h13.29019662v49.456908h-9.89290393V93.52189256l-9.34933928 26.66632399h-6.63150693L97.3764788 93.52189257v36.17343798h-9.92007764Z"/>
    <path d="M175.02490291 126.979017q-2.88090174 1.82192315-6.0064121 2.74944485-3.1255013.9275217-6.522794.9275217-10.1375035 0-16.06237638-6.89018329-5.92486382-6.92330354-5.92486382-18.74923283 0-11.85905949 5.92486382-18.74923836 5.92487288-6.92330465 16.06237638-6.92330465 3.3972927 0 6.522794.92752391 3.12551036.92752391 6.0064121 2.74944595v10.2358921q-2.9080845-2.4181882-5.73462977-3.54446787-2.82653622-1.12627967-5.95204658-1.12627967-5.59872503 0-8.80576556 4.37261445-3.20704054 4.37261335-3.20704054 12.05781414 0 7.65207059 3.20704054 12.02468394 3.20704053 4.37261334 8.80576556 4.37261334 3.12551036 0 5.95204658-1.12627635 2.82654527-1.12627635 5.73462977-3.54446345z"/>
  </g>
</svg>
