<?xml version="1.0" encoding="UTF-8" standalone="no"?>
<svg
   width="210mm"
   height="210mm"
   viewBox="0 0 210 210"
   version="1.1"
   id="svg10"
   sodipodi:docname="full-gold-crown.svg"
   inkscape:version="1.2.1 (9c6d41e410, 2022-07-14)"
   xmlns:inkscape="http://www.inkscape.org/namespaces/inkscape"
   xmlns:sodipodi="http://sodipodi.sourceforge.net/DTD/sodipodi-0.dtd"
   xmlns="http://www.w3.org/2000/svg"
   xmlns:svg="http://www.w3.org/2000/svg">
  <defs
     id="defs14" />
  <sodipodi:namedview
     id="namedview12"
     pagecolor="#ffffff"
     bordercolor="#999999"
     borderopacity="1"
     inkscape:showpageshadow="0"
     inkscape:pageopacity="0"
     inkscape:pagecheckerboard="0"
     inkscape:deskcolor="#d1d1d1"
     inkscape:document-units="mm"
     showgrid="false"
     inkscape:zoom="1.0381746"
     inkscape:cx="397.81362"
     inkscape:cy="398.29524"
     inkscape:window-width="1920"
     inkscape:window-height="1003"
     inkscape:window-x="0"
     inkscape:window-y="40"
     inkscape:window-maximized="1"
     inkscape:current-layer="svg10" />
  <g
     aria-label="FGC"
     style="font-weight:700;font-size:61.836px;line-height:1.25;-inkscape-font-specification:'sans-serif, Bold';stroke-width:1.54592"
     id="g8"
     transform="matrix(0.97504349,0,0,0.97504349,-2.1425408,2.6204428)">
    <path
       d="m 51.211228,80.238429 h 28.593775 v 9.639619 H 61.806612 v 9.208984 h 16.925092 v 9.639618 H 61.806612 v 20.96866 H 51.211228 Z"
       id="path2" />
    <path
       d="m 126.64485,126.01834 q -3.96294,2.31881 -8.22862,3.47822 -4.26567,1.15939 -8.80656,1.15939 -10.26513,0 -16.264592,-6.89016 -5.999464,-6.92331 -5.999464,-18.74923 0,-11.95843 6.109543,-18.81548 6.109549,-6.857049 16.732453,-6.857049 4.10055,0 7.84333,0.927524 3.77031,0.927523 7.10029,2.749445 v 10.235885 q -3.44006,-2.351936 -6.8526,-3.51134 -3.38502,-1.159404 -6.79756,-1.159404 -6.32971,0 -9.76977,4.273234 -3.412541,4.240106 -3.412541,12.157185 0,7.85082 3.302461,12.12405 3.30246,4.27324 9.38448,4.27324 1.65123,0 3.05478,-0.23189 1.43106,-0.26499 2.5594,-0.79502 v -9.60648 h -6.46731 v -8.54647 h 16.51228 z"
       id="path4" />
    <path
       d="m 168.55854,126.97899 q -2.91717,1.82193 -6.08202,2.74944 -3.16486,0.92752 -6.60492,0.92752 -10.26514,0 -16.2646,-6.89016 -5.99947,-6.92331 -5.99947,-18.74923 0,-11.859053 5.99947,-18.749228 5.99946,-6.923301 16.2646,-6.923301 3.44006,0 6.60492,0.927524 3.16485,0.927523 6.08202,2.749445 v 10.235885 q -2.94469,-2.418187 -5.80682,-3.544466 -2.86213,-1.126278 -6.02699,-1.126278 -5.66922,0 -8.91663,4.372611 -3.24742,4.372611 -3.24742,12.057808 0,7.65207 3.24742,12.02467 3.24741,4.37262 8.91663,4.37262 3.16486,0 6.02699,-1.12628 2.86213,-1.12628 5.80682,-3.54447 z"
       id="path6" />
  </g>
</svg>
