<?xml version="1.0" encoding="UTF-8" standalone="no"?>
<svg
   width="210mm"
   height="210mm"
   viewBox="0 0 210 210"
   version="1.1"
   id="svg10"
   sodipodi:docname="full-metal-crown.svg"
   inkscape:version="1.2.1 (9c6d41e410, 2022-07-14)"
   xmlns:inkscape="http://www.inkscape.org/namespaces/inkscape"
   xmlns:sodipodi="http://sodipodi.sourceforge.net/DTD/sodipodi-0.dtd"
   xmlns="http://www.w3.org/2000/svg"
   xmlns:svg="http://www.w3.org/2000/svg">
  <defs
     id="defs14" />
  <sodipodi:namedview
     id="namedview12"
     pagecolor="#ffffff"
     bordercolor="#999999"
     borderopacity="1"
     inkscape:showpageshadow="0"
     inkscape:pageopacity="0"
     inkscape:pagecheckerboard="0"
     inkscape:deskcolor="#d1d1d1"
     inkscape:document-units="mm"
     showgrid="false"
     inkscape:zoom="1.0381746"
     inkscape:cx="396.85039"
     inkscape:cy="397.33201"
     inkscape:window-width="1920"
     inkscape:window-height="1003"
     inkscape:window-x="0"
     inkscape:window-y="40"
     inkscape:window-maximized="1"
     inkscape:current-layer="svg10" />
  <g
     aria-label="FMC"
     style="font-weight:700;font-size:61.4504px;line-height:1.25;-inkscape-font-specification:'sans-serif, Bold';stroke-width:1.53627"
     id="g8"
     transform="matrix(0.92053177,0,0,0.92053177,3.6270062,8.3441635)">
    <path
       d="m 49.433955,80.238423 h 28.238258 v 9.639625 H 59.897601 v 9.208989 h 16.714658 v 9.639623 H 59.897601 v 20.96867 H 49.433955 Z"
       id="path2" />
    <path
       d="m 87.456401,80.238423 h 13.317369 l 9.24063,26.467567 9.29497,-26.467567 h 13.2902 v 49.456907 h -9.89291 V 93.521893 l -9.34933,26.666327 h -6.63151 L 97.376479,93.521893 v 36.173437 h -9.920078 z"
       id="path4" />
    <path
       d="m 175.0249,126.97902 q -2.8809,1.82192 -6.00641,2.74944 -3.1255,0.92752 -6.52279,0.92752 -10.13751,0 -16.06238,-6.89018 -5.92486,-6.9233 -5.92486,-18.74923 0,-11.859062 5.92486,-18.749241 5.92487,-6.923305 16.06238,-6.923305 3.39729,0 6.52279,0.927524 3.12551,0.927524 6.00641,2.749446 v 10.235892 q -2.90808,-2.418188 -5.73463,-3.544467 -2.82653,-1.12628 -5.95204,-1.12628 -5.59873,0 -8.80577,4.372614 -3.20704,4.372614 -3.20704,12.057817 0,7.65207 3.20704,12.02468 3.20704,4.37261 8.80577,4.37261 3.12551,0 5.95204,-1.12627 2.82655,-1.12628 5.73463,-3.54447 z"
       id="path6" />
  </g>
</svg>
