<svg width="210mm" height="210mm" viewBox="0 0 210 210" xmlns="http://www.w3.org/2000/svg">
  <g aria-label="FGC" style="font-weight:700;font-size:61.836px;line-height:1.25;-inkscape-font-specification:'sans-serif, Bold';stroke-width:1.54592">
    <path d="M51.21122795 80.23842925h28.59377507v9.63961912h-17.9983909v9.20898393h16.92509232v9.63961912H61.80661211v20.96866127H51.21122795Z"/>
    <path d="M126.64485036 126.01833653q-3.96294525 2.3188142-8.22861852 3.47822129-4.26567327 1.15939612-8.80655714 1.15939612-10.26513509 0-16.2645969-6.89016534-5.99946364-6.92330945-5.99946364-18.7492311 0-11.95842783 6.10954241-18.8154776 6.1095497-6.85704869 16.73245676-6.85704869 4.10055055 0 7.84332913.92752348 3.77030511.92752349 7.10028601 2.749445v10.23588485q-3.44005967-2.35193525-6.85260193-3.51133905-3.38501573-1.1594049-6.797558-1.1594049-6.32970725 0-9.76976692 4.2732342-3.41254226 4.24010656-3.41254226 12.1571827 0 7.85082416 3.30246348 12.12405397 3.30245438 4.27324079 9.38447755 4.27324079 1.65122719 0 3.0547794-.231888 1.43106053-.26499919 2.55940215-.7950195v-9.6064893h-6.46731256v-8.5464684h16.51228098z"/>
    <path d="M168.55853993 126.97898875q-2.9171741 1.821927-6.08202318 2.7494461-3.16485818.9275191-6.60491785.9275191-10.26513509 0-16.2645969-6.89016535-5.99947093-6.92330945-5.99947093-18.7492311 0-11.8590504 5.99947093-18.74922562 5.99946181-6.92330067 16.2645969-6.92330067 3.44005967 0 6.60491785.92752348 3.16484907.92752349 6.08202318 2.749445v10.23588485q-2.94469152-2.41818614-5.80682168-3.5444656-2.86213016-1.12627835-6.02698835-1.12627835-5.66921637 0-8.9166268 4.37261164-3.24741954 4.37261054-3.24741954 12.05780527 0 7.65206927 3.24741954 12.02467652 3.24741043 4.37261823 8.9166268 4.37261823 3.16485819 0 6.02698835-1.12628494 2.86213016-1.12627397 5.80682168-3.5444656z"/>
  </g>
</svg>
