<svg width="210mm" height="210mm" viewBox="0 0 210 210" xmlns="http://www.w3.org/2000/svg">
  <path style="fill:none;stroke:#000;stroke-width:3;stroke-linecap:butt;stroke-linejoin:miter;stroke-miterlimit:4;stroke-dasharray:none;stroke-opacity:1" d="M.0147505 105H209.98525"/>
  <g aria-label="IMP" style="font-weight:700;font-size:64.1027px;line-height:1.25;-inkscape-font-specification:'sans-serif, Bold';stroke-width:1.60258">
    <path d="M55.74162995 80.0493958h11.28501768v49.90120497H55.74162995Z"/>
    <path d="M78.07717252 80.0493958h14.36275046l9.96598827 26.70533262 10.02461335-26.70533261h14.33343698v49.90120496h-10.6694685V93.45219651l-10.08323654 26.9058777h-7.15206738L88.77595543 93.4521965v36.49840426h-10.6987829Z"/>
    <path d="M137.81449022 80.0493958h18.73019541q8.3538429 0 12.80923389 4.2447769 4.48469322 4.21135466 4.48469322 12.03244052 0 7.85450916-4.48469322 12.09928284-4.455391 4.21135574-12.80923389 4.21135574h-7.44517399v17.31334897h-11.28502142zm11.28502142 9.32514134v13.93757653h6.24339847q3.28290835 0 5.07092519-1.80486614 1.78801684-1.83828942 1.78801684-5.1806343 0-3.3423449-1.78801684-5.14720996-1.78801684-1.80486613-5.07092519-1.80486613z"/>
  </g>
</svg>
