<?xml version="1.0" encoding="UTF-8" standalone="no"?>
<svg
   width="210mm"
   height="210mm"
   viewBox="0 0 210 210"
   version="1.1"
   id="svg10"
   sodipodi:docname="porcelain-bonded-crown.svg"
   inkscape:version="1.2.1 (9c6d41e410, 2022-07-14)"
   xmlns:inkscape="http://www.inkscape.org/namespaces/inkscape"
   xmlns:sodipodi="http://sodipodi.sourceforge.net/DTD/sodipodi-0.dtd"
   xmlns="http://www.w3.org/2000/svg"
   xmlns:svg="http://www.w3.org/2000/svg">
  <defs
     id="defs14" />
  <sodipodi:namedview
     id="namedview12"
     pagecolor="#ffffff"
     bordercolor="#999999"
     borderopacity="1"
     inkscape:showpageshadow="0"
     inkscape:pageopacity="0"
     inkscape:pagecheckerboard="0"
     inkscape:deskcolor="#d1d1d1"
     inkscape:document-units="mm"
     showgrid="false"
     inkscape:zoom="1.0381746"
     inkscape:cx="397.81362"
     inkscape:cy="398.29524"
     inkscape:window-width="1920"
     inkscape:window-height="1003"
     inkscape:window-x="0"
     inkscape:window-y="40"
     inkscape:window-maximized="1"
     inkscape:current-layer="svg10" />
  <g
     aria-label="PBC"
     style="font-weight:700;font-size:61.836px;line-height:1.25;-inkscape-font-specification:'sans-serif, Bold';stroke-width:1.54592"
     id="g8"
     transform="matrix(0.99369504,0,0,0.99369504,-1.9506166,0.66202055)">
    <path
       d="m 51.839123,80.238429 h 17.585584 q 7.843335,0 12.026448,4.206981 4.210632,4.173857 4.210632,11.925304 0,7.784576 -4.210632,11.991556 -4.183113,4.17386 -12.026448,4.17386 h -6.990201 v 17.15918 H 51.839123 Z m 10.595383,9.24211 v 13.813471 h 5.861861 q 3.082293,0 4.761042,-1.78879 1.67875,-1.821923 1.67875,-5.134506 0,-3.312584 -1.67875,-5.10138 -1.678749,-1.788795 -4.761042,-1.788795 z"
       id="path2" />
    <path
       d="m 109.60461,99.385165 q 2.50436,0 3.79782,-1.325034 1.29346,-1.325033 1.29346,-3.908848 0,-2.550691 -1.29346,-3.875724 -1.29346,-1.35816 -3.79782,-1.35816 h -5.86187 v 10.467766 z m 0.35776,21.631175 q 3.19238,0 4.78856,-1.62317 1.62371,-1.62316 1.62371,-4.90263 0,-3.2132 -1.59618,-4.80324 -1.5962,-1.62317 -4.81609,-1.62317 h -6.21963 v 12.95221 z m 9.85233,-17.78858 q 3.41254,1.19253 5.28393,4.40574 1.87139,3.21321 1.87139,7.88395 0,7.15518 -4.01799,10.66652 -4.01799,3.51134 -12.21909,3.51134 H 93.147361 V 80.238429 h 15.906829 q 8.55887,0 12.38422,3.11383 3.85286,3.113828 3.85286,9.970878 0,3.610716 -1.40354,6.161405 -1.40354,2.517568 -4.07303,3.743218 z"
       id="path4" />
    <path
       d="m 168.69107,126.97899 q -2.91718,1.82193 -6.08203,2.74944 -3.16485,0.92752 -6.60491,0.92752 -10.26515,0 -16.26461,-6.89016 -5.99946,-6.92331 -5.99946,-18.74923 0,-11.859053 5.99946,-18.749228 5.99946,-6.923301 16.26461,-6.923301 3.44006,0 6.60491,0.927524 3.16485,0.927523 6.08203,2.749445 v 10.235885 q -2.94469,-2.418187 -5.80682,-3.544466 -2.86213,-1.126278 -6.02699,-1.126278 -5.66922,0 -8.91664,4.372611 -3.24741,4.372611 -3.24741,12.057808 0,7.65207 3.24741,12.02467 3.24742,4.37262 8.91664,4.37262 3.16486,0 6.02699,-1.12628 2.86213,-1.12628 5.80682,-3.54447 z"
       id="path6" />
  </g>
</svg>
