<svg width="210mm" height="210mm" viewBox="0 0 210 210" xmlns="http://www.w3.org/2000/svg">
  <g aria-label="PBC" style="font-weight:700;font-size:61.836px;line-height:1.25;-inkscape-font-specification:'sans-serif, Bold';stroke-width:1.54592">
    <path d="M51.83912267 80.23842925h17.58558411q7.84333552 0 12.02644834 4.20698111 4.21063206 4.17385677 4.21063206 11.92530348 0 7.78457216-4.21063206 11.99155328-4.18311282 4.17386006-12.02644834 4.17386006h-6.99020086v17.15918551H51.83912267Zm10.59538325 9.24210937v13.8134759H68.296367q3.08229318 0 4.76104234-1.78879608 1.67874916-1.82192152 1.67874916-5.1345046 0-3.31258417-1.67874916-5.10138024-1.67874916-1.78879498-4.76104234-1.78879498z"/>
    <path d="M109.6046069 99.38516461q2.5043582 0 3.79782253-1.32503323t1.29346433-3.9088488q0-2.55069013-1.29346433-3.87572336-1.29346434-1.35815978-3.79782253-1.35815978h-5.86186563v10.46776517zm.35776285 21.63117789q3.1923756 0 4.78855884-1.62317213 1.62370977-1.62316116 1.62370977-4.90262757 0-3.21320015-1.59618324-4.80324135-1.59619236-1.62316664-4.81608537-1.62316664h-6.21962848v12.95220769zm9.85232829-17.78857998q3.41254226 1.19253035 5.2839361 4.40573709 1.87138474 3.21321113 1.87138474 7.8839507 0 7.1551755-4.01798919 10.66651894-4.0179892 3.51134344-12.2190903 3.51134344H93.14736076V80.23842925h15.90683405q8.55886395 0 12.384213 3.1138293 3.85286648 3.1138282 3.85286648 9.97087798 0 3.6107165-1.4035431 6.16140552-1.40354312 2.51756468-4.07303314 3.74322047z"/>
    <path d="M168.69106832 126.97898875q-2.9171741 1.821927-6.08203229 2.7494461-3.16484907.9275191-6.60490874.9275191-10.2651442 0-16.26460602-6.89016535-5.99946181-6.92330945-5.99946181-18.7492311 0-11.8590504 5.99946181-18.74922562 5.99946182-6.92330067 16.26460602-6.92330067 3.44005967 0 6.60490874.92752348 3.16485818.92752349 6.08203229 2.749445v10.23588485q-2.94469152-2.41818614-5.80682168-3.5444656-2.86213016-1.12627835-6.02698835-1.12627835-5.66921637 0-8.91663592 4.37261164-3.24741042 4.37261054-3.24741042 12.05780527 0 7.65206927 3.24741042 12.02467652 3.24741955 4.37261823 8.91663592 4.37261823 3.16485819 0 6.02698835-1.12628494 2.86213016-1.12627397 5.80682168-3.5444656z"/>
  </g>
</svg>
