<svg width="210mm" height="210mm" viewBox="0 0 210 210" xmlns="http://www.w3.org/2000/svg">
  <g aria-label="PRR" style="font-weight:700;font-size:61.836px;line-height:1.25;-inkscape-font-specification:'sans-serif, Bold';stroke-width:1.54592">
    <path d="M52.0643626 80.27155908H69.6499467q7.84333552 0 12.02644834 4.20698222 4.21063206 4.17385567 4.21063206 11.92530238 0 7.78457216-4.21063206 11.99155437-4.18311282 4.17385128-12.02644834 4.17385128h-6.99020086v17.15918552H52.0643626Zm10.59538325 9.24210938v13.81347589h5.86186107q3.08229318 0 4.76104234-1.78879607 1.67874916-1.82192042 1.67874916-5.1345046 0-3.31258418-1.67874916-5.10138025-1.67874916-1.78879497-4.76104234-1.78879497z"/>
    <path d="M108.42629825 102.2008649q3.3299809 0 4.76104143-1.49066267 1.45858705-1.49066266 1.45858705-4.90262427 0-3.37883508-1.45858705-4.83637229-1.43106053-1.45753721-4.76104143-1.45753721h-4.4583134v12.68719643zm-4.4583134 8.81147856v18.71609139H93.3725952V80.27155908h16.18204466q8.11853974 0 11.88884485 3.27945873 3.79782253 3.27945764 3.79782253 10.36838774 0 4.90262427-1.98147262 8.04957902-1.95395521 3.14695475-5.91690046 4.63761741 2.17411276.59626572 3.88038389 2.71631955 1.73378854 2.08693168 3.49510362 6.3601615l5.75177773 14.04535182H119.1868015l-5.0087255-12.2896801q-1.51362188-3.71009832-3.08228771-5.0682603-1.54114841-1.358151-4.12807708-1.358151z"/>
    <path d="M151.82609229 102.2008649q3.32997179 0 4.76104142-1.49066267 1.45857794-1.49066266 1.45857794-4.90262427 0-3.37883508-1.45857794-4.83637229-1.43106963-1.45753721-4.76104142-1.45753721h-4.45832252v12.68719643zm-4.45832252 8.81147856v18.71609139h-10.59538052V80.27155908h16.18203554q8.11853974 0 11.88884485 3.27945873 3.79783165 3.27945764 3.79783165 10.36838774 0 4.90262427-1.98147263 8.04957902-1.9539552 3.14695475-5.91690957 4.63761741 2.17412188.59626572 3.880393 2.71631955 1.73378855 2.08693168 3.49509451 6.3601615l5.75178685 14.04535182h-11.28339792l-5.0087255-12.2896801q-1.513631-3.71009832-3.08229683-5.0682603-1.54114841-1.358151-4.12806796-1.358151z"/>
  </g>
</svg>
