<?xml version="1.0" encoding="UTF-8" standalone="no"?>
<svg
   width="210mm"
   height="210mm"
   viewBox="0 0 210 210"
   version="1.1"
   id="svg10"
   sodipodi:docname="preventative-resin-restoration.svg"
   inkscape:version="1.2.1 (9c6d41e410, 2022-07-14)"
   xmlns:inkscape="http://www.inkscape.org/namespaces/inkscape"
   xmlns:sodipodi="http://sodipodi.sourceforge.net/DTD/sodipodi-0.dtd"
   xmlns="http://www.w3.org/2000/svg"
   xmlns:svg="http://www.w3.org/2000/svg">
  <defs
     id="defs14" />
  <sodipodi:namedview
     id="namedview12"
     pagecolor="#ffffff"
     bordercolor="#999999"
     borderopacity="1"
     inkscape:showpageshadow="0"
     inkscape:pageopacity="0"
     inkscape:pagecheckerboard="0"
     inkscape:deskcolor="#d1d1d1"
     inkscape:document-units="mm"
     showgrid="false"
     inkscape:zoom="1.0381746"
     inkscape:cx="398.77685"
     inkscape:cy="399.25847"
     inkscape:window-width="1920"
     inkscape:window-height="1003"
     inkscape:window-x="0"
     inkscape:window-y="40"
     inkscape:window-maximized="1"
     inkscape:current-layer="svg10" />
  <g
     aria-label="PRR"
     style="font-weight:700;font-size:61.836px;line-height:1.25;-inkscape-font-specification:'sans-serif, Bold';stroke-width:1.54592"
     id="g8"
     transform="matrix(0.96102319,0,0,0.96102319,-1.4177338,4.0925645)">
    <path
       d="m 52.064363,80.271559 h 17.585584 q 7.843335,0 12.026448,4.206982 4.210632,4.173856 4.210632,11.925303 0,7.784576 -4.210632,11.991556 -4.183113,4.17385 -12.026448,4.17385 h -6.990201 v 17.15918 H 52.064363 Z m 10.595383,9.242109 v 13.813472 h 5.861861 q 3.082293,0 4.761042,-1.78879 1.678749,-1.821922 1.678749,-5.134506 0,-3.312585 -1.678749,-5.101381 -1.678749,-1.788795 -4.761042,-1.788795 z"
       id="path2" />
    <path
       d="m 108.4263,102.20086 q 3.32998,0 4.76104,-1.49066 1.45859,-1.49066 1.45859,-4.902622 0,-3.378835 -1.45859,-4.836372 -1.43106,-1.457538 -4.76104,-1.457538 h -4.45832 v 12.687192 z m -4.45832,8.81148 v 18.71609 H 93.372595 V 80.271559 h 16.182045 q 8.11854,0 11.88884,3.279459 3.79783,3.279457 3.79783,10.368388 0,4.902624 -1.98148,8.049574 -1.95395,3.14696 -5.9169,4.63762 2.17412,0.59627 3.88039,2.71632 1.73379,2.08693 3.4951,6.36016 l 5.75178,14.04535 h -11.2834 l -5.00872,-12.28968 q -1.51363,-3.71009 -3.08229,-5.06826 -1.54115,-1.35815 -4.12808,-1.35815 z"
       id="path4" />
    <path
       d="m 151.82609,102.20086 q 3.32997,0 4.76104,-1.49066 1.45858,-1.49066 1.45858,-4.902622 0,-3.378835 -1.45858,-4.836372 -1.43107,-1.457538 -4.76104,-1.457538 h -4.45832 v 12.687192 z m -4.45832,8.81148 v 18.71609 H 136.77239 V 80.271559 h 16.18203 q 8.11854,0 11.88885,3.279459 3.79783,3.279457 3.79783,10.368388 0,4.902624 -1.98147,8.049574 -1.95396,3.14696 -5.91691,4.63762 2.17412,0.59627 3.88039,2.71632 1.73379,2.08693 3.4951,6.36016 l 5.75178,14.04535 H 162.5866 l -5.00873,-12.28968 q -1.51363,-3.71009 -3.0823,-5.06826 -1.54115,-1.35815 -4.12806,-1.35815 z"
       id="path6" />
  </g>
</svg>
